<?xml version="1.0" encoding="UTF-8"?>
<svg width="20px" height="15px" viewBox="0 0 20 15" version="1.1" xmlns="http://www.w3.org/2000/svg" xmlns:xlink="http://www.w3.org/1999/xlink">
    <!-- Generator: Sketch 47.1 (45422) - http://www.bohemiancoding.com/sketch -->
    <title>Flags/EARTH2</title>
    <desc>Created with Sketch.</desc>
    <defs>
        <rect id="path-1" x="0" y="0" width="20" height="15" rx="1"></rect>
    </defs>
    <g id="Symbols" stroke="none" stroke-width="1" fill="none" fill-rule="evenodd">
        <g id="Flags/EARTH2">
            <mask id="mask-2" fill="white">
                <use xlink:href="#path-1"></use>
            </mask>
            <use id="Rectangle-77" fill="#080F26" xlink:href="#path-1"></use>
            <g id="earth" mask="url(#mask-2)">
                <g transform="translate(5.000000, 2.000000)">
                    <circle id="Oval-2" fill="#2273C9" cx="5.5" cy="5.5" r="5.5"></circle>
                    <path d="M5.5,0 C2.464,0 0,2.464 0,5.5 C0,8.536 2.464,11 5.5,11 C8.536,11 11,8.536 11,5.5 C11,2.464 8.536,0 5.5,0 Z M4.95,9.8615 C2.7775,9.592 1.1,7.744 1.1,5.5 C1.1,5.159 1.144,4.8345 1.2155,4.5155 L3.85,7.15 L3.85,7.7 C3.85,8.305 4.345,8.8 4.95,8.8 L4.95,9.8615 Z M8.745,8.4645 C8.602,8.019 8.195,7.7 7.7,7.7 L7.15,7.7 L7.15,6.05 C7.15,5.7475 6.9025,5.5 6.6,5.5 L3.3,5.5 L3.3,4.4 L4.4,4.4 C4.7025,4.4 4.95,4.1525 4.95,3.85 L4.95,2.75 L6.05,2.75 C6.655,2.75 7.15,2.255 7.15,1.65 L7.15,1.4245 C8.7615,2.079 9.9,3.6575 9.9,5.5 C9.9,6.644 9.46,7.6835 8.745,8.4645 Z" id="Shape" fill="#3DD164"></path>
                </g>
            </g>
        </g>
    </g>
</svg>