<?xml version="1.0" encoding="utf-8"?>
<!-- Generator: Adobe Illustrator 21.1.0, SVG Export Plug-In . SVG Version: 6.00 Build 0)  -->
<svg version="1.1" id="Layer_1" xmlns="http://www.w3.org/2000/svg" xmlns:xlink="http://www.w3.org/1999/xlink" x="0px" y="0px"
	 viewBox="0 0 100 18" style="enable-background:new 0 0 100 18;" xml:space="preserve">
<style type="text/css">
	.st0{fill:#080F26;}
	.st1{fill:#33CCFF;}
	.st2{opacity:0.2958;enable-background:new    ;}
</style>
<title>logo - h centered copy 2</title>
<desc>Created with Sketch.</desc>
<g id="Homepage">
	<g id="navigation-LoggedOut" transform="translate(-670.000000, -21.000000)">
		<g>
			<g id="navigation">
				<g id="logo---h-centered-copy-2" transform="translate(670.000000, 21.000000)">
					<path id="arch" class="st0" d="M8.7,17.8v-1.5C7.9,17.4,6.5,18,4.7,18c-2.8,0-4.5-1.7-4.5-4c0-2.4,1.8-3.9,5-3.9h3.6V9.8
						c0-1.4-0.9-2.2-2.7-2.2c-1.2,0-2.5,0.4-3.9,1.1L1,6.3c1.9-1,3.6-1.5,5.9-1.5c3.5,0,5.5,1.7,5.5,4.6l0,8.4H8.7z M5.7,15.3
						c1.6,0,2.8-0.8,3-1.9v-1.1H5.8c-1.4,0-2.1,0.4-2.1,1.5C3.7,14.7,4.4,15.3,5.7,15.3z M19.3,4.9h-3.7v12.9h3.7v-6.2
						c0-2.2,1.6-3.6,4.3-3.4V4.8c-1.9,0-3.4,0.9-4.3,2.5V4.9z M31.2,4.8c-4,0-6.7,2.7-6.7,6.6c0,3.9,2.7,6.5,6.6,6.5
						c2.7,0,4.7-1.1,5.8-2.8l-2.6-1.7c-0.7,1-1.7,1.5-3,1.5c-1.8,0-3.1-1.4-3.1-3.5c0-2.1,1.3-3.4,3.1-3.4c1.3,0,2.3,0.5,3,1.4
						l2.5-1.8C35.7,5.8,33.7,4.8,31.2,4.8z M47.6,4.8c-2,0-3.6,0.8-4.5,2.4V0h-3.7v17.8h3.7v-6.3c0-1.9,1.1-3.3,3-3.3
						c1.6,0,2.6,1,2.6,2.6v7h3.7V9.7C52.4,6.7,50.5,4.8,47.6,4.8z"/>
					<path id="h" class="st1" d="M49.5,4.8c-2,0-3.6,0.8-4.5,2.4V0h-3.7v17.8H45v-6.3c0-1.9,1.1-3.3,3-3.3c1.6,0,2.6,1,2.6,2.6v7
						h3.7V9.7C54.3,6.7,52.4,4.8,49.5,4.8z"/>
					<path id="h_1_" class="st2" d="M47.6,4.8c-2,0-3.6,0.8-4.5,2.4V0h-3.7v17.8h3.7v-6.3c0-1.9,1.1-3.3,3-3.3c1.6,0,2.6,1,2.6,2.6
						v7h3.7V9.7C52.4,6.7,50.5,4.8,47.6,4.8z"/>
					<path id="Type-something" class="st1" d="M63.1,4.8c4.6,0,6.7,3,6.4,7.7h-9.3c0.4,1.6,1.7,2.6,3.4,2.6c1.2,0,2.4-0.5,3.3-1.4
						l2,2c-1.3,1.4-3.2,2.3-5.6,2.3c-4.2,0-6.8-2.6-6.8-6.5C56.4,7.4,59.1,4.8,63.1,4.8z M60.1,10.3H66c0-1.7-1.2-2.8-2.9-2.8
						C61.5,7.5,60.3,8.6,60.1,10.3z M75.8,17.8V0H72v17.8H75.8z M83.3,17.8V0h-3.7v17.8H83.3z M92.9,4.8c4.2,0,7,2.6,7,6.6
						c0,3.9-2.8,6.6-7,6.6c-4.2,0-7-2.7-7-6.6C85.9,7.4,88.7,4.8,92.9,4.8z M92.9,7.9c-1.9,0-3.2,1.4-3.2,3.5S91,15,92.9,15
						c1.9,0,3.2-1.4,3.2-3.5S94.8,7.9,92.9,7.9z"/>
				</g>
			</g>
		</g>
	</g>
</g>
</svg>
